<svg xmlns="http://www.w3.org/2000/svg" viewBox="0 0 64 64">
  <defs>
    <linearGradient id="grad" x1="0%" y1="0%" x2="100%" y2="100%">
      <stop offset="0%" style="stop-color:#4CAF50;stop-opacity:1" />
      <stop offset="100%" style="stop-color:#2E7D32;stop-opacity:1" />
    </linearGradient>
  </defs>
  
  <!-- Background circle -->
  <circle cx="32" cy="32" r="30" fill="url(#grad)"/>
  
  <!-- Medical cross -->
  <rect x="28" y="16" width="8" height="32" fill="white" rx="1"/>
  <rect x="16" y="28" width="32" height="8" fill="white" rx="1"/>
  
  <!-- Image corners (representing DICOM) -->
  <path d="M 12 12 L 12 18 L 14 18 L 14 14 L 18 14 L 18 12 Z" fill="white" opacity="0.7"/>
  <path d="M 52 12 L 46 12 L 46 14 L 50 14 L 50 18 L 52 18 Z" fill="white" opacity="0.7"/>
  <path d="M 12 52 L 12 46 L 14 46 L 14 50 L 18 50 L 18 52 Z" fill="white" opacity="0.7"/>
  <path d="M 52 52 L 52 46 L 50 46 L 50 50 L 46 50 L 46 52 Z" fill="white" opacity="0.7"/>
</svg>
